<svg width="22" height="22" viewBox="0 0 22 22" fill="none" xmlns="http://www.w3.org/2000/svg">
<path d="M18.7 3.34791C18.0676 3.29981 17.3571 3.29988 16.6306 3.29996L5.36938 3.29996C4.64285 3.29988 3.9324 3.29981 3.29999 3.34792L3.29999 3.29995C3.29999 1.4774 4.77745 -6.04504e-05 6.59999 -6.03708e-05L15.4 -6.10352e-05C17.2225 -6.09555e-05 18.7 1.4774 18.7 3.29995L18.7 3.34791Z" fill="#FF6B6B"/>
<path fill-rule="evenodd" clip-rule="evenodd" d="M9.82767 10.9999C9.85173 10.9999 9.87587 10.9999 9.90009 10.9999L12.1001 10.9999C12.1243 10.9999 12.1484 10.9999 12.1725 10.9999C13.1476 10.9999 13.9878 10.9998 14.6607 11.0903C15.3817 11.1872 16.0729 11.4058 16.6335 11.9665C17.1942 12.5271 17.4128 13.2183 17.5097 13.9394C17.6002 14.6122 17.6001 15.4524 17.6001 16.4275L17.6001 16.5723C17.6001 17.5475 17.6002 18.3877 17.5097 19.0605C17.4128 19.7816 17.1942 20.4728 16.6335 21.0334C16.0729 21.594 15.3817 21.8126 14.6607 21.9096C13.9878 22 13.1476 22 12.1725 21.9999L9.82767 21.9999C8.85254 22 8.01234 22 7.33952 21.9096C6.61845 21.8126 5.92727 21.594 5.36664 21.0334C4.80601 20.4728 4.58739 19.7816 4.49045 19.0605C4.39999 18.3877 4.40003 17.5475 4.40009 16.5723C4.40009 16.5483 4.40009 16.5241 4.40009 16.4999C4.40009 16.4757 4.40009 16.4516 4.40009 16.4275C4.40003 15.4524 4.39999 14.6122 4.49045 13.9394C4.58739 13.2183 4.80601 12.5271 5.36664 11.9665C5.92727 11.4058 6.61845 11.1872 7.33952 11.0903C8.01234 10.9998 8.85254 10.9999 9.82767 10.9999Z" fill="#FF6B6B"/>
<path d="M5.42762 4.39997C4.45249 4.39991 3.61229 4.39986 2.93947 4.49032C2.2184 4.58727 1.52721 4.80589 0.966584 5.36652C0.405956 5.92715 0.187336 6.61834 0.0903915 7.33941C-6.73465e-05 8.01223 -2.12208e-05 8.85243 3.32867e-05 9.82757L3.31842e-05 12.1724C-2.14086e-05 13.1475 -6.76005e-05 13.9877 0.0903912 14.6606C0.187337 15.3816 0.405955 16.0728 0.966584 16.6335C1.59115 17.258 2.44974 17.4766 3.30371 17.549C3.29997 17.249 3.3 16.9413 3.30003 16.6306C3.30003 15.6859 3.27404 14.7312 3.40021 13.7929C3.51345 12.9505 3.78936 11.9881 4.58877 11.1887C5.38819 10.3893 6.35058 10.1134 7.1929 10.0002C7.93937 9.89979 8.84128 9.89989 9.76941 9.89998L12.2307 9.89998C13.1588 9.89989 14.0607 9.89979 14.8072 10.0002C15.6495 10.1134 16.6119 10.3893 17.4113 11.1887C18.2107 11.9881 18.4866 12.9505 18.5999 13.7929C18.726 14.7312 18.7 15.6859 18.7 16.6306C18.7001 16.9413 18.7001 17.249 18.6964 17.549C19.5503 17.4766 20.4089 17.258 21.0335 16.6335C21.5941 16.0728 21.8127 15.3816 21.9097 14.6606C22.0001 13.9877 22.0001 13.1475 22 12.1724L22 9.8276C22.0001 8.85246 22.0001 8.01223 21.9097 7.33941C21.8127 6.61834 21.5941 5.92715 21.0335 5.36652C20.4728 4.80589 19.7817 4.58727 19.0606 4.49032C18.3878 4.39986 17.5476 4.39991 16.5724 4.39997L5.42762 4.39997Z" fill="#FF6B6B"/>
</svg>
